<?xml version="1.0" standalone="no"?>

<svg viewBox="0 0 185 27" style="background-color:#ffffff00" version="1.1" xmlns="http://www.w3.org/2000/svg" xmlns:xlink="http://www.w3.org/1999/xlink" xml:space="preserve" x="0px" y="0px" width="185px" height="27px">
	<defs>
		<linearGradient id="gradient1" x1="50%" y1="0%" x2="50%" y2="100%">
			<stop stop-color="#3b981c" stop-opacity="1" offset="0%"/>
			<stop stop-color="#2a7f0e" stop-opacity="1" offset="100%"/>
		</linearGradient>
	</defs>
	<g id="Capa%201">
		<path d="M 185 27 L 185 3.8 L 180.7 20 L 178 3.8 L 174.3 14.8 L 170.8 1.5 L 168.2 14 L 166.9 7.4 L 163.9 14.1 L 161.7 2.2 L 157.7 15.5 L 155.5 6.2 L 150.8 14.7 L 147.7 4.8 L 142.6 13.3 L 139.4 1 L 137.1 14.5 L 135.3 5.8 L 132 11.9 L 132 4.4 L 126.1 18.4 L 124.6 9.3 L 121.7 16.3 L 121 7.4 L 118 14.1 L 118 1 L 111.7 15.5 L 111.1 1.8 L 104.6 18.2 L 102.5 1.6 L 98.6 13.3 L 97.4 1 L 93.2 12.3 L 92 0.8 L 87 13.8 L 84.8 2.5 L 82.4 18.2 L 81.9 1.8 L 75.3 15.5 L 75 1 L 69 14.1 L 69 4.2 L 65.3 16.3 L 63.5 7 L 59.8 14.8 L 60 7.3 L 55.5 14 L 55.7 5.8 L 49.9 14.5 L 51 1 L 44.2 15.8 L 43.7 2.7 L 38.2 17.3 L 35.5 6.2 L 30.3 17 L 29.8 5.3 L 23.1 14.1 L 22.2 7.5 L 17 17.7 L 16.8 9.3 L 11 18.3 L 9.7 8.3 L 4.3 20 L 0 3.8 L 0 27 L 185 27 Z" fill="url(#gradient1)"/>
	</g>
</svg>