<?xml version="1.0" standalone="no"?>

<svg viewBox="0 0 280 200" style="background-color:#ffffff00" version="1.1" xmlns="http://www.w3.org/2000/svg" xmlns:xlink="http://www.w3.org/1999/xlink" xml:space="preserve" x="0px" y="0px" width="280px" height="200px">
	<defs>
		<!-- Library -->
		<symbol id="MairimFalling" overflow="visible">
			<g id="Capa%201">
				<g>
					<path d="M -25.1 -16.4 C -25.1 -16.4 -30.3 -28.3 -30.5 -36.1 C -30.7 -43.9 -31.9 -59.7 -31.9 -59.7 L -28.9 -64.4 L -24.8 -50.6 L -21.4 -33.8 L -18.1 -23.8 L -25.1 -16.4 Z" fill="url(#gradient1)"/>
					<path d="M 8.5 -19.8 L 16.5 -34 L 23 -59 L 27 -55.3 L 24.7 -32.8 L 17.8 -15.6 L 8.5 -19.8 Z" fill="url(#gradient2)"/>
					<path d="M 31.1 -24.4 L 27.9 -24.4 L 24.4 -41.9 L 25.1 -43.3 L 13 -100.4 L 15 -101 L 27.1 -43.2 L 28.4 -42.1 L 31.1 -24.4 Z" fill="#222222"/>
					<path d="M -6.3 20.2 C -18.3 19.6 -20.8 21 -21.7 29 C -22.5 37 -14.7 77.3 -14.7 77.3 L 4.8 77.2 C 4.8 77.2 14.3 34 11.8 28 C 9.2 21.8 11.7 21 -6.3 20.2 Z" fill="#001040"/>
					<path d="M -18 -24.3 C -18 -24.3 -12.7 -20.4 -10.7 -20.2 C -5.3 -19.6 -2.1 -19.7 2.8 -20 C 5.8 -20.2 7.9 -24.4 7.9 -24.4 L 18.3 -15.3 C 18.3 -15.3 15.5 -10.7 13.5 -9 C 11.5 -7.3 9.1 -6.3 9.1 -6.3 C 9.1 -6.3 10.3 0.7 9.5 10.8 C 9 17 10.5 24 10.5 24 C 10.5 24 7.7 25.2 -1.8 25.5 C -11.3 25.8 -20.5 23.7 -20.5 23.7 C -20.5 23.7 -17.5 14.1 -18.5 7.7 C -19.7 0 -18.5 -4.8 -18.5 -4.8 C -18.5 -4.8 -20.4 -6.8 -22.4 -10.6 C -24.5 -14.3 -26.3 -17.8 -26.3 -17.8 L -18 -24.3 Z" fill="url(#gradient3)"/>
					<path d="M -9 -25 L 1 -25 L 0.9 -19.8 C 0.9 -19.8 -2.7 -13.8 -3.9 -13.8 C -5.1 -13.7 -9.1 -20.1 -9.1 -20.1 L -9 -25 Z" fill="url(#gradient4)"/>
					<path id="Elipse" d="M -18 -40.5 C -18 -50.2 -11.7 -58 -4 -58 C 3.7 -58 10 -50.2 10 -40.5 C 10 -30.8 3.7 -23 -4 -23 C -11.7 -23 -18 -30.8 -18 -40.5 Z" fill="url(#gradient5)"/>
					<path id="Elipse2" d="M -8 -30.8 C -8 -31.9 -7 -30.7 -3.4 -30.7 C 0.2 -30.7 1 -31.9 1.1 -30.8 C 1.1 -29.2 0.3 -27.5 -3.3 -27.5 C -6.8 -27.5 -8 -29.1 -8 -30.8 Z" fill="#e38777"/>
					<path id="Elipse3" d="M -12 -40 C -12 -41.1 -11.1 -42 -10 -42 C -8.9 -42 -8 -41.1 -8 -40 C -8 -38.9 -8.9 -39 -10 -39 C -11.1 -39 -12 -38.9 -12 -40 Z" fill="#402000"/>
					<path id="Elipse4" d="M 0 -40 C 0 -41.1 0.9 -42 2 -42 C 3.1 -42 4 -41.1 4 -40 C 4 -38.9 3.1 -39 2 -39 C 0.9 -39 0 -38.9 0 -40 Z" fill="#402000"/>
					<path id="Elipse5" opacity="0.6" d="M -14 -43.2 C -14 -43.9 -12.5 -45 -10.6 -45 C -8.6 -45 -7 -43.9 -7 -43.2 C -7 -42.5 -8.7 -43.9 -10.6 -43.9 C -12.5 -43.9 -14 -42.5 -14 -43.2 Z" stroke="#ffffff00" stroke-width="1" fill="#402000"/>
					<path id="Elipse6" opacity="0.6" d="M 5 -43.2 C 5 -43.9 3.5 -45 1.6 -45 C -0.4 -45 -2 -43.9 -2 -43.2 C -2 -42.5 -0.3 -43.9 1.6 -43.9 C 3.5 -43.9 5 -42.5 5 -43.2 Z" stroke="#ffffff00" stroke-width="1" fill="#402000"/>
					<path d="M -7 -54.5 C -4.9 -49.6 4.2 -51.6 6.7 -46.2 C 12.7 -32.9 6.8 -30.7 6.8 -30.7 C 6.8 -30.7 11.6 -30.9 16.8 -41 C 20.8 -48.9 17.1 -65.8 3.3 -71.5 C -11.7 -77.7 -17.3 -65.5 -19.7 -60.7 C -22 -55.9 -24 -47.8 -21.7 -42.3 C -19.4 -36.9 -14.8 -28.5 -14.8 -28.5 C -14.8 -28.5 -19.3 -34.8 -17.4 -43.4 C -15.8 -50.5 -9.1 -59.4 -7 -54.5 Z" fill="url(#gradient6)"/>
					<path d="M -14.5 77.1 C -14.5 77.1 -14.8 83.7 -14.5 87.5 C -14.2 91.5 -13.5 94 -9.9 94 C -6.3 94 -4.5 90 -4.5 90 C -4.5 90 -3.5 93.4 0.5 93.5 C 3.8 93.7 5.1 89.9 4.7 85.8 C 4.3 82.2 4.7 77 4.7 77 L -14.5 77.1 Z" fill="#855b49"/>
				</g>
			</g>

		</symbol>
		<symbol id="MairimWalking" overflow="visible">
			<g id="Capa%2012">
				<g id="Jump">
					<path d="M -29.9 71.6 L -10.4 74.3 C -10.4 74.3 -9.8 71.5 -10.1 69.7 C -10.6 66.9 -16.9 66.5 -16.9 66.5 L -29.2 64.8 L -29.9 71.6 Z" fill="#6c4a3c"/>
					<path d="M -29.9 71.3 L -10.1 73.3 L -10.5 75.8 L -30.3 74 L -29.9 71.3 Z" fill="#51372d"/>
					<path d="M -24.7 3.8 C -28.4 11.3 -28.3 20.5 -24.7 25.2 C -21 29.8 -3.5 38.5 -3.5 38.5 L -5.7 57.5 L 3.7 60 C 3.7 60 10.2 44.5 12.2 35.5 C 14.2 26.5 -4.3 11.8 -4.3 11.8 C -4.3 11.8 -20.1 -5.2 -24.7 3.8 Z" fill="#001040"/>
					<path d="M 12 -16.2 L 1 -13.2 C 1 -13.2 1 7.2 4.7 8.7 C 8.3 10.2 27.3 1.8 27.3 1.8 C 27.3 1.8 28.6 -0.2 28.3 -3.8 C 28.1 -7.4 24.3 -6.8 24.3 -6.8 L 12 -3.2 L 12 -16.2 Z" fill="url(#gradient7)"/>
					<path d="M -8 60.8 L 10 69.8 C 10 69.8 11.4 67.3 11.5 65.5 C 11.7 62.7 6 60.4 6 60.4 L -5 54.9 L -8 60.8 Z" fill="#855b49"/>
					<path d="M -8 60.8 L 10 69.8 L 9 71.8 L -8.8 63.2 L -8 60.8 Z" fill="#644537"/>
					<path d="M 2.5 -30.7 C 14.8 -25.7 13 -16.2 13 -16.2 C 13 -16.2 10.8 -15.5 8.8 -15.2 C 8.1 -15.1 9.9 -10.5 9.8 -6.7 C 9.6 -1.8 1.4 4.9 -0.3 13.8 C -1.5 19.8 -23.7 7.5 -23.7 7.5 L -16.8 -12.5 L -25.3 -16.8 C -25.3 -16.8 -21.9 -24.3 -17.3 -27.8 C -11.3 -32.5 -6.5 -34.3 2.5 -30.7 Z" stroke="#ffffff00" stroke-width="1" fill="url(#gradient8)"/>
					<path d="M 21.9 -10.7 L 25.1 -10.7 L 26.3 7.7 L 25.4 9.1 L 29.9 66.6 L 28 66.8 L 23.4 8.9 L 22.4 7.7 L 21.9 -10.7 Z" fill="#222222"/>
					<path d="M -24.5 25.3 C -24.5 25.3 -22.8 34.6 -22.3 42.1 C -21.6 51.5 -29 64.8 -29 64.8 L -17 66.8 C -17 66.8 -9.3 51 -8.3 46.1 C -7.2 41.2 -7.3 39.5 -7.2 37.5 C -6.8 31.5 -24.5 25.3 -24.5 25.3 Z" stroke="#ffffff00" stroke-width="1" fill="#001040"/>
					<path d="M 20.2 -0.5 C 24.3 -1.7 25.2 -2.7 24.8 -4 C 24.7 -4.5 22.4 -4.1 20.3 -3.4 C 17.8 -2.7 16.2 0.6 20.2 -0.5 Z" fill="#fecea0"/>
					<path d="M -24.7 -16.8 L -14 -12.2 L -19.3 3.3 L -11 11.8 C -11 11.8 -9.2 14.8 -12 17.5 C -14.8 20.2 -17 17.8 -17 17.8 C -17 17.8 -28 5.3 -29.3 2.2 C -30.7 -1 -24.7 -16.8 -24.7 -16.8 Z" fill="url(#gradient9)"/>
					<path d="M 16.7 -70.6 C 20.2 -65.1 25.8 -55.9 23.7 -42.7 C 22.8 -37.3 13.3 -23.9 13.3 -23.9 C 13.3 -23.9 11.9 -26.6 8.3 -33.7 C 4.8 -40.7 -8.1 -51.5 -7.8 -56.2 C -7.4 -60.8 13.2 -76.1 16.7 -70.6 Z" fill="url(#gradient10)"/>
					<path d="M -1.5 -39.5 L 7.2 -34 L 5.3 -28.8 C 5.3 -28.8 3 -16.5 1.8 -16.7 C 0.6 -16.8 -3.8 -32.2 -3.8 -32.2 L -1.5 -39.5 Z" fill="url(#gradient11)"/>
					<path id="Elipse7" d="M -6.6 -50 C -7.2 -59.6 -1.7 -67.8 5.6 -68.2 C 12.3 -68.7 24.2 -64.1 19.9 -49.8 C 19.6 -48.6 23.2 -45.8 23.1 -44.5 C 23 -43.9 20.8 -43.1 20.7 -42.5 C 19.1 -35.5 17.3 -34 10.3 -33.6 C 2.8 -33.1 -6.1 -40.2 -6.6 -50 Z" fill="url(#gradient12)"/>
					<path id="Elipse8" d="M 20 -38.7 C 19.8 -38.9 19.4 -39.1 19.1 -39.3 C 17.3 -40 16.2 -40.8 16.7 -42.1 C 17.1 -42.9 17 -42.2 19.6 -40.8 C 20 -40.5 20.2 -40.9 20.6 -40.7 " fill="#e38777"/>
					<path id="Elipse9" d="M 16.5 -34.2 C 16.5 -34.2 16.5 -34.2 16.5 -34.2 " fill="#e38777"/>
					<path d="M 7.2 -32.9 C 7.2 -32.9 -9.5 -37.3 -12 -43.4 C -14.5 -49.5 -19 -59.4 -12.9 -67.7 C -6.9 -76 9.3 -77.9 12.9 -74.2 C 18.3 -71.2 22.8 -61.3 21.5 -60.4 C 20.5 -59.7 12.9 -68 11.9 -67.2 C 10.1 -65.9 13.1 -57.3 9.3 -53.2 C 5.6 -49.1 5.2 -46.3 5.6 -43.6 C 6.6 -37.3 7.2 -32.9 7.2 -32.9 Z" fill="url(#gradient13)"/>
					<path id="Elipse10" d="M 14.7 -51.3 C 14.6 -52.5 13.6 -53 15.1 -53 C 16.3 -53 17.3 -52.3 17.6 -51.3 C 17.8 -50.1 17.4 -50.3 16.2 -50 C 14.6 -49.6 14.8 -49.9 14.7 -51.3 Z" fill="#402000"/>
					<path id="Elipse11" opacity="0.6" d="M 12.3 -55.7 C 12.3 -56.5 14 -57.5 16 -57.4 C 18 -57.2 19.5 -56 19.5 -55.2 C 19.4 -54.5 17.8 -56.1 15.8 -56.2 C 13.9 -56.3 12.2 -55 12.3 -55.7 Z" stroke="#ffffff00" stroke-width="1" fill="#402000"/>
				</g>
			</g>

		</symbol>
		<symbol id="MairimStanding" overflow="visible">
			<g id="Capa%2013">
				<g id="Standing">
					<path d="M -30 -20.3 C -30 -20.3 -33.1 -7.7 -31.8 0 C -30.4 7.7 -28.5 23.3 -28.5 23.3 L -24.5 27.3 L -23 13 L -22.8 -4 L -21.4 -14.4 L -30 -20.3 Z" fill="url(#gradient14)"/>
					<path d="M 14.5 -20.3 C 14.5 -20.3 16.6 -7.8 16.3 0 C 16.3 1 30.9 7.8 30.9 7.8 C 30.9 7.8 31.3 9.4 31 12 C 30.7 14.6 26.3 15.5 26.3 15.5 L 8.3 7.3 L 7.3 -4 L 5.9 -14.4 L 14.5 -20.3 Z" fill="url(#gradient15)"/>
					<path d="M 25 -2 L 28.2 -1.6 L 27 16.9 L 26 18.2 L 23 76 L 21 76 L 24 17.7 L 23.1 16.4 L 25 -2 Z" fill="#222222"/>
					<path d="M -9.3 10.2 C -21.3 9.6 -23.8 11 -24.7 19 C -25.5 27 -19 67 -19 67 L 3 67 C 3 67 11.3 24 8.8 18 C 6.2 11.8 8.7 11 -9.3 10.2 Z" fill="#001040"/>
					<path d="M -30.8 -16.7 C -30.8 -16.7 -29.2 -29.8 -21 -30 C -15.6 -30.1 3.3 -30.3 8 -29 C 14.7 -27.2 15.9 -16 15.9 -16 L 6.9 -13.5 L 6.1 -16.3 C 6.1 -16.3 7.3 -9.3 6.5 0.8 C 6 7 7.5 14 7.5 14 C 7.5 14 4.7 15.2 -4.8 15.5 C -14.3 15.8 -23.5 13.7 -23.5 13.7 C -23.5 13.7 -20.5 4.1 -21.5 -2.3 C -22.7 -10 -21.5 -14.8 -21.5 -14.8 L -22.3 -12.3 L -30.8 -16.7 Z" fill="url(#gradient16)"/>
					<path d="M -12 -35 L -2 -35 L -2.1 -29.8 C -2.1 -29.8 -5.7 -23.8 -6.9 -23.8 C -8.1 -23.7 -12.1 -30.1 -12.1 -30.1 L -12 -35 Z" fill="url(#gradient17)"/>
					<path id="Elipse12" d="M -21 -50.5 C -21 -60.2 -14.7 -68 -7 -68 C 0.7 -68 7 -60.2 7 -50.5 C 7 -40.8 0.7 -33 -7 -33 C -14.7 -33 -21 -40.8 -21 -50.5 Z" fill="url(#gradient18)"/>
					<path id="Elipse13" d="M -12.9 -41.1 C -12.9 -42.2 -10.3 -40.8 -6.7 -40.8 C -3.1 -40.8 -1.2 -42.2 -1.1 -41.1 C -1.1 -39.5 -3.4 -39 -7 -39 C -10.6 -39 -12.8 -39.5 -12.9 -41.1 Z" fill="#e38777"/>
					<path id="Elipse14" d="M -15 -50 C -15 -51.1 -14.1 -52 -13 -52 C -11.9 -52 -11 -51.1 -11 -50 C -11 -48.9 -11.9 -49 -13 -49 C -14.1 -49 -15 -48.9 -15 -50 Z" fill="#402000"/>
					<path id="Elipse15" d="M -3 -50 C -3 -51.1 -2.1 -52 -1 -52 C 0.1 -52 1 -51.1 1 -50 C 1 -48.9 0.1 -49 -1 -49 C -2.1 -49 -3 -48.9 -3 -50 Z" fill="#402000"/>
					<path id="Elipse16" opacity="0.6" d="M -17 -53.2 C -17 -53.9 -15.5 -55 -13.6 -55 C -11.6 -55 -10 -53.9 -10 -53.2 C -10 -52.5 -11.7 -53.9 -13.6 -53.9 C -15.5 -53.9 -17 -52.5 -17 -53.2 Z" stroke="#ffffff00" stroke-width="1" fill="#402000"/>
					<path id="Elipse17" opacity="0.6" d="M 2 -53.2 C 2 -53.9 0.5 -55 -1.4 -55 C -3.4 -55 -5 -53.9 -5 -53.2 C -5 -52.5 -3.3 -53.9 -1.4 -53.9 C 0.5 -53.9 2 -52.5 2 -53.2 Z" stroke="#ffffff00" stroke-width="1" fill="#402000"/>
					<path d="M -11.8 -63.7 C -9.8 -58.8 -0.5 -57.5 2 -52 C 8.1 -38.8 -0.4 -26.6 -0.4 -26.6 C -0.4 -26.6 3.8 -25.9 9 -36 C 13 -43.9 13 -68.8 2.9 -73 C -10.6 -78.6 -18.3 -72.8 -20.6 -68 C -23 -63.2 -27.3 -53.4 -25 -48 C -22.7 -42.6 -17.8 -38.5 -17.8 -38.5 C -17.8 -38.5 -22.3 -44.8 -20.4 -53.4 C -18.8 -60.5 -13.9 -68.6 -11.8 -63.7 Z" fill="url(#gradient19)"/>
					<path d="M -13.7 67.1 C -13.7 67.1 -21.3 66.2 -22.5 69.8 C -23.7 73.4 -22.5 74 -22.5 74 L 7 74 C 7 74 7.1 71 6.4 69.3 C 5.4 66.6 -0.8 67.1 -0.8 67.1 L -13.7 67.1 Z" fill="#855b49"/>
					<rect x="-23" y="74" width="30" height="2" fill="#644537"/>
					<path d="M 21.9 7.9 C 25 11.3 24.7 10.9 26 10 C 26.6 9.6 25.9 8.4 24.1 6.6 C 22.2 4.6 18.8 4.5 21.9 7.9 Z" fill="#ffd4a8"/>
				</g>
			</g>

		</symbol>
		<!-- End Library -->
		<linearGradient id="gradient1" x1="78.8%" y1="59.3%" x2="14.8%" y2="61.9%">
			<stop stop-color="#fbbc88" stop-opacity="1" offset="0%"/>
			<stop stop-color="#ffd4a8" stop-opacity="1" offset="100%"/>
		</linearGradient>
		<linearGradient id="gradient2" x1="99.6%" y1="84.5%" x2="74.2%" y2="67%">
			<stop stop-color="#fbbc88" stop-opacity="1" offset="0%"/>
			<stop stop-color="#ffd4a8" stop-opacity="1" offset="100%"/>
		</linearGradient>
		<linearGradient id="gradient3" x1="48.9%" y1="8.7%" x2="48.9%" y2="100%">
			<stop stop-color="#55aaff" stop-opacity="1" offset="0%"/>
			<stop stop-color="#0080ff" stop-opacity="1" offset="16.1%"/>
			<stop stop-color="#0069d2" stop-opacity="1" offset="100%"/>
		</linearGradient>
		<linearGradient id="gradient4" x1="50.6%" y1="8.9%" x2="50.6%" y2="53.3%">
			<stop stop-color="#f4a46f" stop-opacity="1" offset="0%"/>
			<stop stop-color="#ffcc99" stop-opacity="1" offset="100%"/>
		</linearGradient>
		<radialGradient id="gradient5" cx="53.6%" cy="51.4%" r="58.3%">
			<stop stop-color="#ffd8b0" stop-opacity="1" offset="0%"/>
			<stop stop-color="#ffd8b0" stop-opacity="1" offset="16.1%"/>
			<stop stop-color="#ffcc99" stop-opacity="1" offset="67.8%"/>
			<stop stop-color="#e8ab7f" stop-opacity="1" offset="91.7%"/>
			<stop stop-color="#e8ab7f" stop-opacity="1" offset="100%"/>
		</radialGradient>
		<radialGradient id="gradient6" cx="28.6%" cy="96.6%" r="175.8%">
			<stop stop-color="#201000" stop-opacity="1" offset="0%"/>
			<stop stop-color="#523417" stop-opacity="1" offset="41.1%"/>
			<stop stop-color="#6d4720" stop-opacity="1" offset="48.9%"/>
			<stop stop-color="#402000" stop-opacity="1" offset="57.8%"/>
			<stop stop-color="#402000" stop-opacity="1" offset="100%"/>
		</radialGradient>
		<linearGradient id="gradient7" x1="87.7%" y1="72.6%" x2="123.6%" y2="51.3%">
			<stop stop-color="#fbbc88" stop-opacity="1" offset="0%"/>
			<stop stop-color="#ffd4a8" stop-opacity="1" offset="100%"/>
		</linearGradient>
		<linearGradient id="gradient8" x1="71.1%" y1="-5%" x2="71.1%" y2="100.1%">
			<stop stop-color="#55aaff" stop-opacity="1" offset="0%"/>
			<stop stop-color="#0080ff" stop-opacity="1" offset="16.1%"/>
			<stop stop-color="#0069d2" stop-opacity="1" offset="100%"/>
		</linearGradient>
		<linearGradient id="gradient9" x1="115.3%" y1="-0.5%" x2="115.3%" y2="117.5%">
			<stop stop-color="#fbbc88" stop-opacity="1" offset="0%"/>
			<stop stop-color="#ffd4a8" stop-opacity="1" offset="100%"/>
		</linearGradient>
		<radialGradient id="gradient10" cx="96.4%" cy="15.9%" r="77.6%">
			<stop stop-color="#201000" stop-opacity="1" offset="0%"/>
			<stop stop-color="#523417" stop-opacity="1" offset="41.1%"/>
			<stop stop-color="#6d4720" stop-opacity="1" offset="48.9%"/>
			<stop stop-color="#402000" stop-opacity="1" offset="57.8%"/>
			<stop stop-color="#402000" stop-opacity="1" offset="100%"/>
		</radialGradient>
		<linearGradient id="gradient11" x1="62.1%" y1="24.1%" x2="54%" y2="45.5%">
			<stop stop-color="#f39f67" stop-opacity="1" offset="0%"/>
			<stop stop-color="#ffcc99" stop-opacity="1" offset="100%"/>
		</linearGradient>
		<radialGradient id="gradient12" cx="106.7%" cy="39.6%" r="68%">
			<stop stop-color="#ffd8b0" stop-opacity="1" offset="0%"/>
			<stop stop-color="#ffd8b0" stop-opacity="1" offset="16.1%"/>
			<stop stop-color="#ffcc99" stop-opacity="1" offset="67.8%"/>
			<stop stop-color="#e8ab7f" stop-opacity="1" offset="91.7%"/>
			<stop stop-color="#e8ab7f" stop-opacity="1" offset="100%"/>
		</radialGradient>
		<radialGradient id="gradient13" cx="97.6%" cy="14.5%" r="116.4%">
			<stop stop-color="#201000" stop-opacity="1" offset="0%"/>
			<stop stop-color="#523417" stop-opacity="1" offset="41.1%"/>
			<stop stop-color="#6d4720" stop-opacity="1" offset="48.9%"/>
			<stop stop-color="#402000" stop-opacity="1" offset="57.8%"/>
			<stop stop-color="#402000" stop-opacity="1" offset="100%"/>
		</radialGradient>
		<linearGradient id="gradient14" x1="94.2%" y1="38.4%" x2="7%" y2="39.5%">
			<stop stop-color="#fbbc88" stop-opacity="1" offset="0%"/>
			<stop stop-color="#ffd4a8" stop-opacity="1" offset="100%"/>
		</linearGradient>
		<linearGradient id="gradient15" x1="4.3%" y1="48.3%" x2="40%" y2="48.7%">
			<stop stop-color="#fbbc88" stop-opacity="1" offset="0%"/>
			<stop stop-color="#ffd4a8" stop-opacity="1" offset="100%"/>
		</linearGradient>
		<linearGradient id="gradient16" x1="50%" y1="0%" x2="50%" y2="100%">
			<stop stop-color="#55aaff" stop-opacity="1" offset="0%"/>
			<stop stop-color="#0080ff" stop-opacity="1" offset="16.1%"/>
			<stop stop-color="#0069d2" stop-opacity="1" offset="100%"/>
		</linearGradient>
		<linearGradient id="gradient17" x1="50.6%" y1="8.9%" x2="50.6%" y2="53.3%">
			<stop stop-color="#f4a46f" stop-opacity="1" offset="0%"/>
			<stop stop-color="#ffcc99" stop-opacity="1" offset="100%"/>
		</linearGradient>
		<radialGradient id="gradient18" cx="53.6%" cy="51.4%" r="58.3%">
			<stop stop-color="#ffd8b0" stop-opacity="1" offset="0%"/>
			<stop stop-color="#ffd8b0" stop-opacity="1" offset="16.1%"/>
			<stop stop-color="#ffcc99" stop-opacity="1" offset="67.8%"/>
			<stop stop-color="#e8ab7f" stop-opacity="1" offset="91.7%"/>
			<stop stop-color="#e8ab7f" stop-opacity="1" offset="100%"/>
		</radialGradient>
		<radialGradient id="gradient19" cx="34.1%" cy="95%" r="161.2%">
			<stop stop-color="#201000" stop-opacity="1" offset="0%"/>
			<stop stop-color="#523417" stop-opacity="1" offset="41.1%"/>
			<stop stop-color="#6d4720" stop-opacity="1" offset="48.9%"/>
			<stop stop-color="#402000" stop-opacity="1" offset="57.8%"/>
			<stop stop-color="#402000" stop-opacity="1" offset="100%"/>
		</radialGradient>
	</defs>
	<g id="Sprites">
		<use id="Mairim-Falling" xlink:href="#MairimFalling" transform="matrix(1, 0, 0, 1, 105, 103)"/>
		<use id="Mairim-Walking" xlink:href="#MairimWalking" transform="matrix(1, 0, 0, 1, 176, 114)"/>
		<use id="Mairim-Walking2" xlink:href="#MairimWalking" transform="matrix(-1, 0, 0, 1, 245, 114)"/>
		<use id="Mairim-Standing" xlink:href="#MairimStanding" transform="matrix(1, 0, 0, 1, 36, 119)"/>
	</g>
</svg>